<svg width="128px" height="135px" viewBox="0 0 128 135" version="1.1" xmlns="http://www.w3.org/2000/svg" xmlns:xlink="http://www.w3.org/1999/xlink">
    <g stroke="none" stroke-width="1" fill="none" fill-rule="evenodd">
      <path d="M0.187835502,24.9807225 C-0.824570536,51.6772181 4.50698594,72.1963977 12.4531806,87.8449141 C18.2461635,76.912608 27.3969974,68.0438938 38.52167,62.6096575 C35.894305,58.1879604 34.382026,53.0229839 34.382026,47.4991275 C34.382026,32.5039375 45.5194253,20.0976658 59.9634357,18.1238938 L59.9634357,0.0399791775 C29.409216,8.88330661 0.187835502,24.9807225 0.187835502,24.9807225" id="Fill-5" fill="#47b5f5"></path>
      <path d="M127.877397,24.9807225 C127.877397,24.9807225 98.6692764,8.88330661 68.1018636,0.0527725143 L68.1018636,18.1367538 C82.5590005,20.1103925 93.6832067,32.5039375 93.6832067,47.4991275 C93.6832067,53.0229839 92.1713274,58.1879604 89.5433628,62.6096575 C100.668235,68.0438938 109.806143,76.912608 115.599792,87.8449141 C123.558313,72.2090578 128.877543,51.6900115 127.877397,24.9807225" id="Fill-7" fill="#3198d8"></path>
      <path d="M110.498449,96.7396148 C91.5556481,126.063675 64.0266528,134.330036 64.0266528,134.330036 C64.0266528,134.330036 36.4967246,126.063675 17.5540573,96.7396148 C22.4499073,84.5126497 32.0365809,74.6697762 44.0839729,69.4404997 C44.0968329,69.4404997 44.0968329,69.4404997 44.0968329,69.4404997 C49.3643561,74.2213431 56.3619781,77.1431546 64.0266528,77.1431546 C71.7033212,77.1431546 78.7010099,74.2213431 83.9689328,69.4404997 C96.0159917,74.6697762 105.602998,84.5126497 110.498449,96.7396148" id="Fill-10" fill="#0a78bd"></path>
      <path d="M85.5447788,47.4991275 C85.5447788,51.9592046 84.186153,56.0988485 81.8540344,59.5336596 C79.9443623,62.3661176 77.3810307,64.7243561 74.369266,66.3647683 C74.369266,66.3776283 74.369266,66.3776283 74.3566059,66.3647683 C71.2928683,68.0565539 67.7687038,69.0180531 64.0266528,69.0180531 C60.2839355,69.0180531 56.7591046,68.0565539 53.6960333,66.3647683 C53.6833732,66.3776283 53.6833732,66.3776283 53.6833732,66.3647683 C50.6716752,64.7243561 48.1083436,62.3661176 46.1987382,59.5336596 C43.866153,56.0988485 42.507594,51.9592046 42.507594,47.4991275 C42.507594,37.0024612 50.0180156,28.2616804 59.9634357,26.3648017 C61.2707548,26.1085351 62.6293805,25.9803352 64.0266528,25.9803352 C65.4232587,25.9803352 66.7818844,26.1085351 68.1018636,26.3648017 C78.0346903,28.2745403 85.5447788,37.0152546 85.5447788,47.4991275" id="Fill-12" fill="#0a78bd"></path>
    </g>
</svg>