<svg xmlns="http://www.w3.org/2000/svg" height="95" width="192" fill="#00bf8f" fill-rule="evenodd" xmlns:v="https://vecta.io/nano"><path d="M64.65 66.18c-.06.66-.433 1.005-1.124 1.035l-18.263.72c-.566.03-.945-.207-1.126-.72L34.715 40.26l-9.017 26.866c-.212.575-.585.838-1.124.8l-17.538-.72c-.632-.03-.962-.34-1-.945L0 3.8c0-.75.377-1.132 1.124-1.132h14.97c.695 0 1.06.35 1.086 1.042l2.796 39.718 7.484-33.274c.112-.537.443-.8.986-.8h12.58c.603 0 .96.272 1.077.8l7.12 33.274 3.07-40.088c.028-.723.42-1.066 1.178-1.038l15.05.767c.7.028 1.04.4 1.04 1.083zm36.245-19.562l-2.88-.18c-6.47 0-9.7 1.816-9.7 5.456 0 3.062 2.347 4.593 7.04 4.593 1.646 0 3.318-.147 4.998-.448zm14.556-11.753c0 2.527-.534 12.665-1.618 30.412 0 .722-.075 1.78-.223 3.156-.122.722-.517 1.086-1.175 1.086l-11.72.1c-.808 0-1.22-.392-1.22-1.175 0-.058.095-1.54.274-4.46a35.08 35.08 0 0 1-11.814 2.03c-5.2 0-9.374-1.05-12.527-3.156-3.7-2.497-5.545-6.205-5.545-11.137 0-5.7 3.05-9.95 9.138-12.712 4.575-2.04 10.14-3.065 16.7-3.065 1.507 0 3.412.15 5.728.45l.085-2.493c0-1.725-.584-3.18-1.756-4.37a5.85 5.85 0 0 0-4.33-1.794c-2.193 0-3.872.803-5.046 2.407s-1.835 2.416-1.985 2.45L74.743 34.44c-.932.122-1.397-.253-1.397-1.126.028-.06.082-.18.14-.363 1.448-4.853 4.027-8.668 7.754-11.46 3.728-2.786 8.114-4.18 13.162-4.18 14.03 0 21.05 5.853 21.05 17.553zm33.275 16.215l-.085-15.418c-6.887.15-10.33 3.04-10.33 8.66 0 4.627 2.7 6.94 8.117 6.94.483 0 1.246-.063 2.3-.183m17.178-34.713c.145 14.184.034 27.626-.365 40.304l-.363 9.87c-.174 3.877-.524 7.15-1.038 9.824-1.08 5.78-3.68 10.277-7.793 13.505s-9.155 4.855-15.105 4.855c-3.482 0-6.195-.397-8.114-1.175-.548-.247-.815-.617-.815-1.127V78.3c0-.753.432-1.127 1.266-1.127.457 0 1.185.062 2.2.18s1.77.18 2.27.18c7.244 0 10.877-2.645 10.877-7.934v-6.535c-2.263.78-4.72 1.168-7.4 1.168-6.706 0-12.125-2.083-16.276-6.268-4.142-4.176-6.22-9.608-6.22-16.314 0-7.036 2.448-12.604 7.345-16.726 4.6-3.877 10.492-5.815 17.674-5.815 1.36 0 2.825.15 4.418.453v-3.426c0-.726.38-1.084 1.127-1.084l15.197.087c.748 0 1.126.408 1.126 1.22m24.025-15.232l-.636 48.015c0 .722-.368 1.086-1.127 1.086l-15.597-.183c-.752 0-1.112-.377-1.075-1.126l.988-47.792c.033-.747.41-1.127 1.127-1.127h15.243c.738 0 1.103.38 1.077 1.127m1.76 60.366c0 2.14-1.303 3.806-3.93 5.007-2.067.955-4.288 1.436-6.665 1.436-2.496 0-4.794-.5-6.9-1.48-2.608-1.268-3.924-3.002-3.924-5.23 0-2.075 1.33-3.72 3.972-4.92 2.136-.957 4.357-1.44 6.663-1.44a15.36 15.36 0 0 1 6.768 1.53c2.677 1.264 4.017 2.96 4.017 5.098"/></svg>